<svg id="visual" viewBox="0 0 900 600" width="900" height="600" xmlns="http://www.w3.org/2000/svg" xmlns:xlink="http://www.w3.org/1999/xlink" version="1.1"><rect x="0" y="0" width="900" height="600" fill="#fff"></rect><path d="M365 0L345.3 11.2C325.7 22.3 286.3 44.7 277.8 66.8C269.3 89 291.7 111 315.7 133.2C339.7 155.3 365.3 177.7 370.3 200C375.3 222.3 359.7 244.7 339.3 266.8C319 289 294 311 284.8 333.2C275.7 355.3 282.3 377.7 290.8 400C299.3 422.3 309.7 444.7 297 466.8C284.3 489 248.7 511 268.7 533.2C288.7 555.3 364.3 577.7 402.2 588.8L440 600L0 600L0 588.8C0 577.7 0 555.3 0 533.2C0 511 0 489 0 466.8C0 444.7 0 422.3 0 400C0 377.7 0 355.3 0 333.2C0 311 0 289 0 266.8C0 244.7 0 222.3 0 200C0 177.7 0 155.3 0 133.2C0 111 0 89 0 66.8C0 44.7 0 22.3 0 11.2L0 0Z" fill="#0066FF" stroke-linecap="round" stroke-linejoin="miter"></path></svg>